# Blender v2.77 (sub 0) OBJ File: 'greenhouse.blend'
# www.blender.org
mtllib greenhouse2.mtl
o Post_1_Cube.001
v -8.086530 0.097456 7.723102
v -8.086530 10.097456 7.723102
v -8.086530 0.097456 7.523102
v -8.086530 10.097456 7.523102
v -7.886530 0.097456 7.723102
v -7.886530 10.097456 7.723102
v -7.886530 0.097456 7.523102
v -7.886530 10.097456 7.523102
vn -1.0000 0.0000 0.0000
vn 0.0000 0.0000 -1.0000
vn 1.0000 0.0000 0.0000
vn 0.0000 0.0000 1.0000
vn 0.0000 -1.0000 0.0000
vn 0.0000 1.0000 0.0000
usemtl Greenhouse
s off
f 2//1 4//1 3//1 1//1
f 4//2 8//2 7//2 3//2
f 8//3 6//3 5//3 7//3
f 6//4 2//4 1//4 5//4
f 1//5 3//5 7//5 5//5
f 6//6 8//6 4//6 2//6
o Base_Cube
v 8.074265 -0.095618 -8.165134
v 8.074265 -0.095618 7.740230
v -8.125741 -0.095618 7.740228
v -8.125737 -0.095618 -8.165137
v 8.074268 0.104382 -8.165131
v 8.074259 0.104382 7.740234
v -8.125743 0.104382 7.740227
v -8.125739 0.104382 -8.165134
vn 0.0000 -1.0000 0.0000
vn 0.0000 1.0000 0.0000
vn 1.0000 0.0000 0.0000
vn -0.0000 -0.0000 1.0000
vn -1.0000 -0.0000 -0.0000
vn 0.0000 0.0000 -1.0000
usemtl Greenhouse
s off
f 9//7 10//7 11//7 12//7
f 13//8 16//8 15//8 14//8
f 9//9 13//9 14//9 10//9
f 10//10 14//10 15//10 11//10
f 11//11 15//11 16//11 12//11
f 13//12 9//12 12//12 16//12
o Post_2_Cube.002
v -6.086530 0.097460 7.723102
v -6.086530 10.097460 7.723102
v -6.086530 0.097460 7.523102
v -6.086530 10.097460 7.523102
v -5.886530 0.097460 7.723102
v -5.886530 10.097460 7.723102
v -5.886530 0.097460 7.523102
v -5.886530 10.097460 7.523102
vn -1.0000 0.0000 0.0000
vn 0.0000 0.0000 -1.0000
vn 1.0000 0.0000 0.0000
vn 0.0000 0.0000 1.0000
vn 0.0000 -1.0000 0.0000
vn 0.0000 1.0000 0.0000
usemtl Greenhouse
s off
f 18//13 20//13 19//13 17//13
f 20//14 24//14 23//14 19//14
f 24//15 22//15 21//15 23//15
f 22//16 18//16 17//16 21//16
f 17//17 19//17 23//17 21//17
f 22//18 24//18 20//18 18//18
o Post_3_Cube.003
v -4.086530 0.097456 7.723102
v -4.086530 10.097456 7.723102
v -4.086530 0.097456 7.523102
v -4.086530 10.097456 7.523102
v -3.886530 0.097456 7.723102
v -3.886530 10.097456 7.723102
v -3.886530 0.097456 7.523102
v -3.886530 10.097456 7.523102
vn -1.0000 0.0000 0.0000
vn 0.0000 0.0000 -1.0000
vn 1.0000 0.0000 0.0000
vn 0.0000 0.0000 1.0000
vn 0.0000 -1.0000 0.0000
vn 0.0000 1.0000 0.0000
usemtl Greenhouse
s off
f 26//19 28//19 27//19 25//19
f 28//20 32//20 31//20 27//20
f 32//21 30//21 29//21 31//21
f 30//22 26//22 25//22 29//22
f 25//23 27//23 31//23 29//23
f 30//24 32//24 28//24 26//24
o Post_4_Cube.004
v -2.086530 0.097456 7.723102
v -2.086530 10.097456 7.723102
v -2.086530 0.097456 7.523102
v -2.086530 10.097456 7.523102
v -1.886530 0.097456 7.723102
v -1.886530 10.097456 7.723102
v -1.886530 0.097456 7.523102
v -1.886530 10.097456 7.523102
vn -1.0000 0.0000 0.0000
vn 0.0000 0.0000 -1.0000
vn 1.0000 0.0000 0.0000
vn 0.0000 0.0000 1.0000
vn 0.0000 -1.0000 0.0000
vn 0.0000 1.0000 0.0000
usemtl Greenhouse
s off
f 34//25 36//25 35//25 33//25
f 36//26 40//26 39//26 35//26
f 40//27 38//27 37//27 39//27
f 38//28 34//28 33//28 37//28
f 33//29 35//29 39//29 37//29
f 38//30 40//30 36//30 34//30
o Post_5_Cube.005
v -0.086530 0.097456 7.723102
v -0.086530 10.097456 7.723102
v -0.086530 0.097456 7.523102
v -0.086530 10.097456 7.523102
v 0.113470 0.097456 7.723102
v 0.113470 10.097456 7.723102
v 0.113470 0.097456 7.523102
v 0.113470 10.097456 7.523102
vn -1.0000 0.0000 0.0000
vn 0.0000 0.0000 -1.0000
vn 1.0000 0.0000 0.0000
vn 0.0000 0.0000 1.0000
vn 0.0000 -1.0000 0.0000
vn 0.0000 1.0000 0.0000
usemtl Greenhouse
s off
f 42//31 44//31 43//31 41//31
f 44//32 48//32 47//32 43//32
f 48//33 46//33 45//33 47//33
f 46//34 42//34 41//34 45//34
f 41//35 43//35 47//35 45//35
f 46//36 48//36 44//36 42//36
o Post_6_Cube.006
v 1.913470 0.097456 7.723102
v 1.913470 10.097456 7.723102
v 1.913470 0.097456 7.523102
v 1.913470 10.097456 7.523102
v 2.113470 0.097456 7.723102
v 2.113470 10.097456 7.723102
v 2.113470 0.097456 7.523102
v 2.113470 10.097456 7.523102
vn -1.0000 0.0000 0.0000
vn 0.0000 0.0000 -1.0000
vn 1.0000 0.0000 0.0000
vn 0.0000 0.0000 1.0000
vn 0.0000 -1.0000 0.0000
vn 0.0000 1.0000 0.0000
usemtl Greenhouse
s off
f 50//37 52//37 51//37 49//37
f 52//38 56//38 55//38 51//38
f 56//39 54//39 53//39 55//39
f 54//40 50//40 49//40 53//40
f 49//41 51//41 55//41 53//41
f 54//42 56//42 52//42 50//42
o Post_7_Cube.007
v 3.913470 0.097456 7.723102
v 3.913470 10.097456 7.723102
v 3.913470 0.097456 7.523102
v 3.913470 10.097456 7.523102
v 4.113470 0.097456 7.723102
v 4.113470 10.097456 7.723102
v 4.113470 0.097456 7.523102
v 4.113470 10.097456 7.523102
vn -1.0000 0.0000 0.0000
vn 0.0000 0.0000 -1.0000
vn 1.0000 0.0000 0.0000
vn 0.0000 0.0000 1.0000
vn 0.0000 -1.0000 0.0000
vn 0.0000 1.0000 0.0000
usemtl Greenhouse
s off
f 58//43 60//43 59//43 57//43
f 60//44 64//44 63//44 59//44
f 64//45 62//45 61//45 63//45
f 62//46 58//46 57//46 61//46
f 57//47 59//47 63//47 61//47
f 62//48 64//48 60//48 58//48
o Post_8_Cube.008
v 5.913470 0.097456 7.723102
v 5.913470 10.097456 7.723102
v 5.913470 0.097456 7.523102
v 5.913470 10.097456 7.523102
v 6.113470 0.097456 7.723102
v 6.113470 10.097456 7.723102
v 6.113470 0.097456 7.523102
v 6.113470 10.097456 7.523102
vn -1.0000 0.0000 0.0000
vn 0.0000 0.0000 -1.0000
vn 1.0000 0.0000 0.0000
vn 0.0000 0.0000 1.0000
vn 0.0000 -1.0000 0.0000
vn 0.0000 1.0000 0.0000
usemtl Greenhouse
s off
f 66//49 68//49 67//49 65//49
f 68//50 72//50 71//50 67//50
f 72//51 70//51 69//51 71//51
f 70//52 66//52 65//52 69//52
f 65//53 67//53 71//53 69//53
f 70//54 72//54 68//54 66//54
o Post_9_Cube.009
v 7.913470 0.097456 7.723102
v 7.913470 10.097456 7.723102
v 7.913470 0.097456 7.523102
v 7.913470 10.097456 7.523102
v 8.113470 0.097456 7.723102
v 8.113470 10.097456 7.723102
v 8.113470 0.097456 7.523102
v 8.113470 10.097456 7.523102
vn -1.0000 0.0000 0.0000
vn 0.0000 0.0000 -1.0000
vn 1.0000 0.0000 0.0000
vn 0.0000 0.0000 1.0000
vn 0.0000 -1.0000 0.0000
vn 0.0000 1.0000 0.0000
usemtl Greenhouse
s off
f 74//55 76//55 75//55 73//55
f 76//56 80//56 79//56 75//56
f 80//57 78//57 77//57 79//57
f 78//58 74//58 73//58 77//58
f 73//59 75//59 79//59 77//59
f 78//60 80//60 76//60 74//60
o Post_1.001_Cube.010
v -8.086530 0.097456 -7.942787
v -8.086530 10.097456 -7.942787
v -8.086530 0.097456 -8.142787
v -8.086530 10.097456 -8.142787
v -7.886530 0.097456 -7.942787
v -7.886530 10.097456 -7.942787
v -7.886530 0.097456 -8.142787
v -7.886530 10.097456 -8.142787
vn -1.0000 0.0000 0.0000
vn 0.0000 0.0000 -1.0000
vn 1.0000 0.0000 0.0000
vn 0.0000 0.0000 1.0000
vn 0.0000 -1.0000 0.0000
vn 0.0000 1.0000 0.0000
usemtl Greenhouse
s off
f 82//61 84//61 83//61 81//61
f 84//62 88//62 87//62 83//62
f 88//63 86//63 85//63 87//63
f 86//64 82//64 81//64 85//64
f 81//65 83//65 87//65 85//65
f 86//66 88//66 84//66 82//66
o Post_2.001_Cube.011
v -6.086530 0.097460 -7.942787
v -6.086530 10.097460 -7.942787
v -6.086530 0.097460 -8.142787
v -6.086530 10.097460 -8.142787
v -5.886530 0.097460 -7.942787
v -5.886530 10.097460 -7.942787
v -5.886530 0.097460 -8.142787
v -5.886530 10.097460 -8.142787
vn -1.0000 0.0000 0.0000
vn 0.0000 0.0000 -1.0000
vn 1.0000 0.0000 0.0000
vn 0.0000 0.0000 1.0000
vn 0.0000 -1.0000 0.0000
vn 0.0000 1.0000 0.0000
usemtl Greenhouse
s off
f 90//67 92//67 91//67 89//67
f 92//68 96//68 95//68 91//68
f 96//69 94//69 93//69 95//69
f 94//70 90//70 89//70 93//70
f 89//71 91//71 95//71 93//71
f 94//72 96//72 92//72 90//72
o Post_3.001_Cube.012
v -4.086530 0.097456 -7.942787
v -4.086530 10.097456 -7.942787
v -4.086530 0.097456 -8.142787
v -4.086530 10.097456 -8.142787
v -3.886530 0.097456 -7.942787
v -3.886530 10.097456 -7.942787
v -3.886530 0.097456 -8.142787
v -3.886530 10.097456 -8.142787
vn -1.0000 0.0000 0.0000
vn 0.0000 0.0000 -1.0000
vn 1.0000 0.0000 0.0000
vn 0.0000 0.0000 1.0000
vn 0.0000 -1.0000 0.0000
vn 0.0000 1.0000 0.0000
usemtl Greenhouse
s off
f 98//73 100//73 99//73 97//73
f 100//74 104//74 103//74 99//74
f 104//75 102//75 101//75 103//75
f 102//76 98//76 97//76 101//76
f 97//77 99//77 103//77 101//77
f 102//78 104//78 100//78 98//78
o Post_4.001_Cube.013
v -2.086530 0.097456 -7.942787
v -2.086530 10.097456 -7.942787
v -2.086530 0.097456 -8.142787
v -2.086530 10.097456 -8.142787
v -1.886530 0.097456 -7.942787
v -1.886530 10.097456 -7.942787
v -1.886530 0.097456 -8.142787
v -1.886530 10.097456 -8.142787
vn -1.0000 0.0000 0.0000
vn 0.0000 0.0000 -1.0000
vn 1.0000 0.0000 0.0000
vn 0.0000 0.0000 1.0000
vn 0.0000 -1.0000 0.0000
vn 0.0000 1.0000 0.0000
usemtl Greenhouse
s off
f 106//79 108//79 107//79 105//79
f 108//80 112//80 111//80 107//80
f 112//81 110//81 109//81 111//81
f 110//82 106//82 105//82 109//82
f 105//83 107//83 111//83 109//83
f 110//84 112//84 108//84 106//84
o Post_5.001_Cube.014
v -0.086530 0.097456 -7.942787
v -0.086530 10.097456 -7.942787
v -0.086530 0.097456 -8.142787
v -0.086530 10.097456 -8.142787
v 0.113470 0.097456 -7.942787
v 0.113470 10.097456 -7.942787
v 0.113470 0.097456 -8.142787
v 0.113470 10.097456 -8.142787
vn -1.0000 0.0000 0.0000
vn 0.0000 0.0000 -1.0000
vn 1.0000 0.0000 0.0000
vn 0.0000 0.0000 1.0000
vn 0.0000 -1.0000 0.0000
vn 0.0000 1.0000 0.0000
usemtl Greenhouse
s off
f 114//85 116//85 115//85 113//85
f 116//86 120//86 119//86 115//86
f 120//87 118//87 117//87 119//87
f 118//88 114//88 113//88 117//88
f 113//89 115//89 119//89 117//89
f 118//90 120//90 116//90 114//90
o Post_6.001_Cube.015
v 1.913470 0.097456 -7.942787
v 1.913470 10.097456 -7.942787
v 1.913470 0.097456 -8.142787
v 1.913470 10.097456 -8.142787
v 2.113470 0.097456 -7.942787
v 2.113470 10.097456 -7.942787
v 2.113470 0.097456 -8.142787
v 2.113470 10.097456 -8.142787
vn -1.0000 0.0000 0.0000
vn 0.0000 0.0000 -1.0000
vn 1.0000 0.0000 0.0000
vn 0.0000 0.0000 1.0000
vn 0.0000 -1.0000 0.0000
vn 0.0000 1.0000 0.0000
usemtl Greenhouse
s off
f 122//91 124//91 123//91 121//91
f 124//92 128//92 127//92 123//92
f 128//93 126//93 125//93 127//93
f 126//94 122//94 121//94 125//94
f 121//95 123//95 127//95 125//95
f 126//96 128//96 124//96 122//96
o Post_7.001_Cube.016
v 3.913470 0.097456 -7.942787
v 3.913470 10.097456 -7.942787
v 3.913470 0.097456 -8.142787
v 3.913470 10.097456 -8.142787
v 4.113470 0.097456 -7.942787
v 4.113470 10.097456 -7.942787
v 4.113470 0.097456 -8.142787
v 4.113470 10.097456 -8.142787
vn -1.0000 0.0000 0.0000
vn 0.0000 0.0000 -1.0000
vn 1.0000 0.0000 0.0000
vn 0.0000 0.0000 1.0000
vn 0.0000 -1.0000 0.0000
vn 0.0000 1.0000 0.0000
usemtl Greenhouse
s off
f 130//97 132//97 131//97 129//97
f 132//98 136//98 135//98 131//98
f 136//99 134//99 133//99 135//99
f 134//100 130//100 129//100 133//100
f 129//101 131//101 135//101 133//101
f 134//102 136//102 132//102 130//102
o Post_8.001_Cube.017
v 5.913470 0.097456 -7.942787
v 5.913470 10.097456 -7.942787
v 5.913470 0.097456 -8.142787
v 5.913470 10.097456 -8.142787
v 6.113470 0.097456 -7.942787
v 6.113470 10.097456 -7.942787
v 6.113470 0.097456 -8.142787
v 6.113470 10.097456 -8.142787
vn -1.0000 0.0000 0.0000
vn 0.0000 0.0000 -1.0000
vn 1.0000 0.0000 0.0000
vn 0.0000 0.0000 1.0000
vn 0.0000 -1.0000 0.0000
vn 0.0000 1.0000 0.0000
usemtl Greenhouse
s off
f 138//103 140//103 139//103 137//103
f 140//104 144//104 143//104 139//104
f 144//105 142//105 141//105 143//105
f 142//106 138//106 137//106 141//106
f 137//107 139//107 143//107 141//107
f 142//108 144//108 140//108 138//108
o Post_9.001_Cube.018
v 7.913470 0.097456 -7.942787
v 7.913470 10.097456 -7.942787
v 7.913470 0.097456 -8.142787
v 7.913470 10.097456 -8.142787
v 8.113470 0.097456 -7.942787
v 8.113470 10.097456 -7.942787
v 8.113470 0.097456 -8.142787
v 8.113470 10.097456 -8.142787
vn -1.0000 0.0000 0.0000
vn 0.0000 0.0000 -1.0000
vn 1.0000 0.0000 0.0000
vn 0.0000 0.0000 1.0000
vn 0.0000 -1.0000 0.0000
vn 0.0000 1.0000 0.0000
usemtl Greenhouse
s off
f 146//109 148//109 147//109 145//109
f 148//110 152//110 151//110 147//110
f 152//111 150//111 149//111 151//111
f 150//112 146//112 145//112 149//112
f 145//113 147//113 151//113 149//113
f 150//114 152//114 148//114 146//114
o Roof_1_Cube.019
v 8.152434 14.545277 -0.185709
v 8.152434 9.545277 8.474545
v -8.047571 9.545277 8.474544
v -8.047567 14.545278 -0.185710
v 8.152438 14.718480 -0.085706
v 8.152429 9.718480 8.574547
v -8.047573 9.718482 8.574543
v -8.047569 14.718481 -0.085709
vn 0.0000 -0.8660 -0.5000
vn -0.0000 0.8660 0.5000
vn 1.0000 0.0000 0.0000
vn -0.0000 -0.5000 0.8660
vn -1.0000 -0.0000 -0.0000
vn 0.0000 0.5000 -0.8660
usemtl Greenhouse
s off
f 153//115 154//115 155//115 156//115
f 157//116 160//116 159//116 158//116
f 153//117 157//117 158//117 154//117
f 154//118 158//118 159//118 155//118
f 155//119 159//119 160//119 156//119
f 157//120 153//120 156//120 160//120
o Roof_1.001_Cube.020
v 8.152434 9.545277 -8.787594
v 8.152434 14.545277 -0.127341
v -8.047571 14.545276 -0.127342
v -8.047567 9.545276 -8.787596
v 8.152438 9.718483 -8.887592
v 8.152429 14.718483 -0.227339
v -8.047573 14.718480 -0.227343
v -8.047569 9.718481 -8.887595
vn 0.0000 -0.8660 0.5000
vn -0.0000 0.8660 -0.5000
vn 1.0000 0.0000 -0.0000
vn -0.0000 0.5000 0.8660
vn -1.0000 -0.0000 0.0000
vn 0.0000 -0.5000 -0.8660
usemtl Greenhouse
s off
f 161//121 162//121 163//121 164//121
f 165//122 168//122 167//122 166//122
f 161//123 165//123 166//123 162//123
f 162//124 166//124 167//124 163//124
f 163//125 167//125 168//125 164//125
f 165//126 161//126 164//126 168//126
